<?xml version="1.0" encoding="iso-8859-1"?>
<!-- Generator: Adobe Illustrator 18.1.1, SVG Export Plug-In . SVG Version: 6.00 Build 0)  -->
<svg width="25px" height="-20px" version="1.1" id="Capa_1" xmlns="http://www.w3.org/2000/svg" xmlns:xlink="http://www.w3.org/1999/xlink" x="0px" y="0px"
	 viewBox="0 0 498.772 498.772" style="enable-background:new 0 0 498.772 498.772;" xml:space="preserve">
<g>
	<g>
		<path d="M275.965,473.556c-3.967,7.367-1.983,16.433,4.25,21.533c3.117,2.55,6.8,3.683,10.483,3.683
			c3.967,0,8.217-1.417,11.333-4.25c2.267-1.983,52.7-47.033,97.75-102.567c64.6-79.617,85-139.967,60.067-179.917
			c-21.817-35.133-62.9-59.783-122.117-73.667c-31.733-7.367-61.483-9.917-79.617-10.483V17.106c0-7.083-4.25-13.317-10.767-15.867
			s-13.883-1.133-18.7,3.967l-195.217,204c-3.117,3.4-4.817,7.933-4.817,12.75c0,4.817,2.267,9.067,5.95,12.183l192.95,164.333
			c4.817,4.25,11.617,5.1,17.567,2.833c5.95-2.55,9.917-8.217,10.483-14.45l6.8-102.567c7.367-0.85,17.567-1.7,28.05-1.7
			c13.6,0,45.9,1.7,48.733,18.417c1.417,7.65,1.133,32.3-28.333,100.3C294.382,439.556,276.249,473.272,275.965,473.556z
			 M290.982,248.306c-24.65,0-46.467,4.25-47.317,4.25c-7.65,1.417-13.033,7.933-13.6,15.583l-5.667,82.45L70.832,219.972
			L224.399,59.606v85c0,4.533,1.7,9.067,5.1,12.183c3.4,3.117,7.65,5.1,12.183,4.817c0,0,0.567,0,1.7,0
			c15.017,0,146.483,1.983,187.85,68.567c15.583,25.217-4.817,75.083-57.517,140.25c-8.217,10.2-16.433,19.833-24.933,28.9
			c20.117-48.733,28.05-83.017,24.367-104.55C369.465,273.522,352.182,248.306,290.982,248.306z"/>
	</g>
</g>
<g>
</g>
<g>
</g>
<g>
</g>
<g>
</g>
<g>
</g>
<g>
</g>
<g>
</g>
<g>
</g>
<g>
</g>
<g>
</g>
<g>
</g>
<g>
</g>
<g>
</g>
<g>
</g>
<g>
</g>
</svg>
