<?xml version="1.0" ?><svg width="30px" height="20px" id="Layer_1" style="enable-background:new 0 0 32 32;" version="1.1" viewBox="0 0 32 32" xml:space="preserve" xmlns="http://www.w3.org/2000/svg" xmlns:xlink="http://www.w3.org/1999/xlink"><style type="text/css">
	.st0{fill:none;stroke:#000000;stroke-width:1.5;stroke-linecap:round;stroke-linejoin:round;stroke-miterlimit:10;}
</style><g><path class="st0" d="M14.3,2.8L12.8,8H6.1L4.6,2.8L4.7,3c1.4,1.6,3.1,1.6,4.6,0l0.1-0.2L9.6,3c1.4,1.6,3.1,1.6,4.6,0L14.3,2.8z"/><g><path class="st0" d="M31,26.4c0,0.8-0.7,1.5-1.5,1.5H17.9c0-0.1,0-0.1,0-0.2V27c0-1.6-0.6-3-1.5-4.1c0.3-0.4,0.5-0.8,0.9-1.1    c1.2-1.2,2.8-1.9,4.6-1.9h2.7C28.1,19.9,31,22.8,31,26.4z"/><path class="st0" d="M23.2,7c-2.4,0-4.3,1.9-4.3,4.3s1.9,6.1,4.3,6.1s4.3-3.7,4.3-6.1S25.6,7,23.2,7z"/></g><path class="st0" d="M16.1,29.2H2.8c-1,0-1.8-0.8-1.8-1.8l0,0c0-3.7,3-6.8,6.8-6.8h3.3c3.7,0,6.8,3,6.8,6.8l0,0   C17.9,28.3,17.1,29.2,16.1,29.2z"/><path class="st0" d="M14.1,11.3c0,2.6-2.1,6.6-4.7,6.6s-4.7-4-4.7-6.6C4.8,10,5.3,8.9,6.1,8h6.7C13.6,8.9,14.1,10,14.1,11.3z"/></g></svg>